<svg width="301" height="294" viewBox="0 0 301 294" fill="none" xmlns="http://www.w3.org/2000/svg">
<path d="M84.442 97.5582L122.163 104.209L90.7753 61.6404L84.442 97.5582ZM44.4942 43.3795L99.3609 53.054L133.602 99.4929L119.784 177.859C119.173 181.323 117.142 184.39 114.138 186.386C111.134 188.382 107.402 189.143 103.764 188.501L21.4641 173.989C17.8262 173.348 14.58 171.357 12.4395 168.454C10.299 165.551 9.43963 161.974 10.0504 158.51L28.4745 54.0219C29.7526 46.7731 36.8814 42.0372 44.4942 43.3795ZM78.6338 170.603L79.7853 164.072C81.3168 155.387 63.7766 147.783 54.655 146.174C45.5334 144.566 26.4501 145.712 24.9186 154.398L23.7671 160.928L78.6338 170.603ZM60.4125 113.522C56.7746 112.88 53.0431 113.641 50.0388 115.637C47.0345 117.633 45.0036 120.7 44.3928 124.164C43.782 127.628 44.6414 131.205 46.7819 134.108C48.9223 137.011 52.1686 139.002 55.8065 139.644C59.4444 140.285 63.1759 139.524 66.1802 137.528C69.1844 135.533 71.2154 132.465 71.8262 129.001C72.437 125.537 71.5776 121.96 69.4371 119.057C67.2966 116.154 64.0504 114.163 60.4125 113.522Z" fill="#FCB21B"/>
<path d="M112.645 101.257L156.004 108.903L119.918 60.0119L112.645 101.257ZM66.7163 39.0326L129.785 50.1532L169.152 103.489L153.284 193.478C152.583 197.456 150.249 200.978 146.796 203.269C143.343 205.561 139.054 206.434 134.873 205.696L40.2703 189.015C36.0886 188.278 32.3568 185.991 29.8959 182.657C27.435 179.322 26.4464 175.215 27.1478 171.237L48.3046 51.2507C49.7724 42.9267 57.9656 37.4896 66.7163 39.0326ZM105.983 185.138L107.305 177.639C109.064 167.665 88.901 158.929 78.4159 157.08C67.9308 155.231 45.9959 156.544 44.2372 166.518L42.9149 174.017L105.983 185.138ZM85.0274 119.584C80.8457 118.847 76.5567 119.72 73.1038 122.011C69.651 124.303 67.3171 127.825 66.6158 131.802C65.9144 135.78 66.9029 139.888 69.3638 143.222C71.8247 146.556 75.5565 148.843 79.7382 149.581C83.9199 150.318 88.2089 149.445 91.6618 147.154C95.1146 144.862 97.4485 141.34 98.1499 137.363C98.8513 133.385 97.8627 129.277 95.4018 125.943C92.9409 122.609 89.2091 120.322 85.0274 119.584Z" fill="#155DAF"/>
<path d="M143.399 98.2117L192.976 106.954L151.774 50.7147L143.399 98.2117ZM90.9598 26.635L163.072 39.3504L208.02 100.702L189.747 204.332C188.94 208.912 186.266 212.971 182.314 215.613C178.362 218.256 173.455 219.268 168.674 218.424L60.5052 199.351C55.7239 198.508 51.4592 195.88 48.6494 192.045C45.8396 188.21 44.7149 183.482 45.5226 178.901L69.8862 40.7278C71.5765 31.1421 80.9542 24.8708 90.9598 26.635ZM135.663 194.795L137.186 186.159C139.211 174.674 116.164 164.644 104.175 162.53C92.1864 160.416 67.0986 161.958 65.0734 173.444L63.5507 182.08L135.663 194.795ZM111.789 119.351C107.007 118.508 102.101 119.519 98.1489 122.162C94.1969 124.805 91.5229 128.863 90.7152 133.444C89.9075 138.024 91.0322 142.752 93.842 146.588C96.6518 150.423 100.916 153.051 105.698 153.894C110.479 154.737 115.386 153.726 119.338 151.083C123.29 148.44 125.964 144.382 126.771 139.801C127.579 135.221 126.454 130.493 123.645 126.657C120.835 122.822 116.57 120.194 111.789 119.351Z" fill="#F05C35"/>
<path d="M172.146 102.436L222.936 111.392L181.34 50.2962L172.146 102.436ZM119.205 24.6781L193.082 37.7045L238.46 104.354L218.401 218.114C217.514 223.142 214.718 227.622 210.627 230.567C206.537 233.512 201.487 234.681 196.588 233.817L85.7739 214.277C80.8756 213.414 76.5301 210.588 73.6935 206.421C70.8568 202.255 69.7613 197.089 70.6479 192.061L97.3931 40.3814C99.2486 29.8587 108.955 22.8707 119.205 24.6781ZM162.993 208.344L164.665 198.864C166.888 186.256 143.352 175.556 131.07 173.391C118.788 171.225 93.0118 173.229 90.7886 185.838L89.117 195.318L162.993 208.344ZM139.428 125.991C134.53 125.127 129.48 126.297 125.389 129.241C121.298 132.186 118.502 136.666 117.616 141.694C116.729 146.723 117.824 151.888 120.661 156.055C123.498 160.221 127.843 163.047 132.742 163.911C137.64 164.775 142.69 163.605 146.78 160.66C150.871 157.715 153.667 153.236 154.554 148.208C155.44 143.179 154.345 138.013 151.508 133.847C148.672 129.681 144.326 126.855 139.428 125.991Z" fill="#4E9D51"/>
<path d="M213.189 107.151L271.828 117.491L223.435 49.0388L213.189 107.151ZM151.598 20.0304L236.892 35.07L289.684 109.745L267.327 236.536C266.339 242.14 263.145 247.119 258.447 250.377C253.749 253.635 247.933 254.905 242.278 253.907L114.337 231.348C108.681 230.351 103.65 227.168 100.35 222.5C97.05 217.832 95.7512 212.061 96.7394 206.456L126.548 37.4022C128.616 25.6741 139.763 17.9436 151.598 20.0304ZM203.357 225.256L205.22 214.69C207.698 200.637 180.479 188.539 166.299 186.038C152.119 183.538 122.404 185.598 119.926 199.65L118.063 210.216L203.357 225.256ZM175.614 133.209C169.959 132.212 164.143 133.482 159.445 136.74C154.747 139.998 151.553 144.976 150.565 150.581C149.576 156.185 150.875 161.956 154.175 166.625C157.476 171.293 162.507 174.475 168.162 175.473C173.817 176.47 179.634 175.2 184.331 171.942C189.029 168.684 192.223 163.705 193.212 158.101C194.2 152.496 192.901 146.725 189.601 142.057C186.301 137.389 181.27 134.206 175.614 133.209Z" fill="#080808"/>
<path d="M15.7441 228.119C15.0475 228.119 14.416 228.253 13.8496 228.52C13.2832 228.78 12.7982 229.158 12.3945 229.652C11.9974 230.147 11.6882 230.749 11.4668 231.459C11.252 232.169 11.1445 232.969 11.1445 233.861C11.1445 234.779 11.2389 235.596 11.4277 236.312C11.623 237.022 11.9128 237.621 12.2969 238.109C12.681 238.598 13.1595 238.969 13.7324 239.223C14.3053 239.477 14.9759 239.604 15.7441 239.604C16.3236 239.604 16.8737 239.548 17.3945 239.438C17.9154 239.32 18.4297 239.187 18.9375 239.037V240.619C18.6836 240.717 18.4297 240.805 18.1758 240.883C17.9219 240.954 17.6549 241.013 17.375 241.059C17.1016 241.104 16.8053 241.137 16.4863 241.156C16.1738 241.182 15.8255 241.195 15.4414 241.195C14.3737 241.195 13.4492 241.02 12.668 240.668C11.8867 240.316 11.2389 239.818 10.7246 239.174C10.2168 238.529 9.83919 237.755 9.5918 236.85C9.3444 235.945 9.2207 234.942 9.2207 233.842C9.2207 232.761 9.36068 231.771 9.64062 230.873C9.92708 229.975 10.3438 229.203 10.8906 228.559C11.444 227.914 12.1276 227.413 12.9414 227.055C13.7552 226.697 14.6895 226.518 15.7441 226.518C16.4473 226.518 17.1178 226.589 17.7559 226.732C18.3939 226.876 18.9701 227.084 19.4844 227.357L18.7227 228.881C18.3125 228.673 17.8665 228.493 17.3848 228.344C16.903 228.194 16.3561 228.119 15.7441 228.119ZM28.7129 241L28.4492 239.564H28.3516C28.1888 239.844 27.9935 240.089 27.7656 240.297C27.5443 240.499 27.3001 240.668 27.0332 240.805C26.7663 240.935 26.4831 241.033 26.1836 241.098C25.8841 241.163 25.5781 241.195 25.2656 241.195C24.6732 241.195 24.1523 241.12 23.7031 240.971C23.2539 240.821 22.8796 240.587 22.5801 240.268C22.2806 239.949 22.0527 239.542 21.8965 239.047C21.7467 238.552 21.6719 237.963 21.6719 237.279V230.277H23.4492V237.182C23.4492 238.028 23.6217 238.663 23.9668 239.086C24.3118 239.509 24.8457 239.721 25.5684 239.721C26.0957 239.721 26.5384 239.636 26.8965 239.467C27.2546 239.298 27.541 239.05 27.7559 238.725C27.9772 238.393 28.1335 237.986 28.2246 237.504C28.3223 237.022 28.3711 236.469 28.3711 235.844V230.277H30.1484V241H28.7129ZM38.1855 230.082C38.3743 230.082 38.5859 230.092 38.8203 230.111C39.0547 230.124 39.2565 230.147 39.4258 230.18L39.1914 231.82C39.0091 231.788 38.8203 231.762 38.625 231.742C38.4362 231.716 38.2572 231.703 38.0879 231.703C37.6777 231.703 37.3034 231.788 36.9648 231.957C36.6263 232.12 36.3333 232.357 36.0859 232.67C35.8451 232.976 35.6562 233.347 35.5195 233.783C35.3893 234.213 35.3242 234.691 35.3242 235.219V241H33.5469V230.277H34.9922L35.207 232.24H35.2852C35.4479 231.96 35.6204 231.69 35.8027 231.43C35.9915 231.169 36.1999 230.941 36.4277 230.746C36.6621 230.544 36.9225 230.385 37.209 230.268C37.4954 230.144 37.821 230.082 38.1855 230.082ZM46.1738 230.082C46.3626 230.082 46.5742 230.092 46.8086 230.111C47.043 230.124 47.2448 230.147 47.4141 230.18L47.1797 231.82C46.9974 231.788 46.8086 231.762 46.6133 231.742C46.4245 231.716 46.2454 231.703 46.0762 231.703C45.666 231.703 45.2917 231.788 44.9531 231.957C44.6146 232.12 44.3216 232.357 44.0742 232.67C43.8333 232.976 43.6445 233.347 43.5078 233.783C43.3776 234.213 43.3125 234.691 43.3125 235.219V241H41.5352V230.277H42.9805L43.1953 232.24H43.2734C43.4362 231.96 43.6087 231.69 43.791 231.43C43.9798 231.169 44.1882 230.941 44.416 230.746C44.6504 230.544 44.9108 230.385 45.1973 230.268C45.4837 230.144 45.8092 230.082 46.1738 230.082ZM51.3008 241H49.5234V230.277H51.3008V241ZM49.3867 227.377C49.3867 226.986 49.4844 226.703 49.6797 226.527C49.8815 226.352 50.1289 226.264 50.4219 226.264C50.5651 226.264 50.6986 226.286 50.8223 226.332C50.9525 226.371 51.0632 226.436 51.1543 226.527C51.252 226.618 51.3268 226.736 51.3789 226.879C51.4375 227.016 51.4668 227.182 51.4668 227.377C51.4668 227.755 51.3626 228.038 51.1543 228.227C50.9525 228.409 50.7083 228.5 50.4219 228.5C50.1289 228.5 49.8815 228.409 49.6797 228.227C49.4844 228.044 49.3867 227.761 49.3867 227.377ZM58.8008 241.195C58.1432 241.195 57.528 241.094 56.9551 240.893C56.3822 240.684 55.8841 240.359 55.4609 239.916C55.0378 239.467 54.7057 238.897 54.4648 238.207C54.224 237.51 54.1035 236.674 54.1035 235.697C54.1035 234.675 54.2272 233.809 54.4746 233.1C54.722 232.383 55.0605 231.804 55.4902 231.361C55.9264 230.912 56.4342 230.587 57.0137 230.385C57.5931 230.183 58.2148 230.082 58.8789 230.082C59.3867 230.082 59.8815 230.137 60.3633 230.248C60.8516 230.359 61.2585 230.495 61.584 230.658L61.0566 232.162C60.9069 232.097 60.7409 232.035 60.5586 231.977C60.3763 231.911 60.1875 231.856 59.9922 231.811C59.7969 231.758 59.6048 231.719 59.416 231.693C59.2272 231.661 59.0482 231.645 58.8789 231.645C57.8568 231.645 57.1113 231.973 56.6426 232.631C56.1738 233.282 55.9395 234.298 55.9395 235.678C55.9395 237.051 56.1738 238.057 56.6426 238.695C57.1178 239.327 57.8372 239.643 58.8008 239.643C59.3281 239.643 59.8034 239.584 60.2266 239.467C60.6562 239.343 61.0469 239.2 61.3984 239.037V240.619C61.0469 240.808 60.6693 240.951 60.2656 241.049C59.8685 241.146 59.3802 241.195 58.8008 241.195ZM70.9004 241L70.6367 239.564H70.5391C70.3763 239.844 70.181 240.089 69.9531 240.297C69.7318 240.499 69.4876 240.668 69.2207 240.805C68.9538 240.935 68.6706 241.033 68.3711 241.098C68.0716 241.163 67.7656 241.195 67.4531 241.195C66.8607 241.195 66.3398 241.12 65.8906 240.971C65.4414 240.821 65.0671 240.587 64.7676 240.268C64.4681 239.949 64.2402 239.542 64.084 239.047C63.9342 238.552 63.8594 237.963 63.8594 237.279V230.277H65.6367V237.182C65.6367 238.028 65.8092 238.663 66.1543 239.086C66.4993 239.509 67.0332 239.721 67.7559 239.721C68.2832 239.721 68.7259 239.636 69.084 239.467C69.4421 239.298 69.7285 239.05 69.9434 238.725C70.1647 238.393 70.321 237.986 70.4121 237.504C70.5098 237.022 70.5586 236.469 70.5586 235.844V230.277H72.3359V241H70.9004ZM77.5117 241H75.7344V225.805H77.5117V241ZM87.8535 241L87.5898 239.564H87.4922C87.3294 239.844 87.1341 240.089 86.9062 240.297C86.6849 240.499 86.4408 240.668 86.1738 240.805C85.9069 240.935 85.6237 241.033 85.3242 241.098C85.0247 241.163 84.7188 241.195 84.4062 241.195C83.8138 241.195 83.293 241.12 82.8438 240.971C82.3945 240.821 82.0202 240.587 81.7207 240.268C81.4212 239.949 81.1934 239.542 81.0371 239.047C80.8874 238.552 80.8125 237.963 80.8125 237.279V230.277H82.5898V237.182C82.5898 238.028 82.7624 238.663 83.1074 239.086C83.4525 239.509 83.9863 239.721 84.709 239.721C85.2363 239.721 85.679 239.636 86.0371 239.467C86.3952 239.298 86.6816 239.05 86.8965 238.725C87.1178 238.393 87.2741 237.986 87.3652 237.504C87.4629 237.022 87.5117 236.469 87.5117 235.844V230.277H89.2891V241H87.8535ZM105.529 241V234.096C105.529 233.249 105.367 232.615 105.041 232.191C104.715 231.768 104.211 231.557 103.527 231.557C103.052 231.557 102.648 231.635 102.316 231.791C101.984 231.941 101.711 232.165 101.496 232.465C101.288 232.758 101.135 233.126 101.037 233.568C100.939 234.005 100.891 234.509 100.891 235.082V241H99.1035V234.096C99.1035 233.249 98.9408 232.615 98.6152 232.191C98.2962 231.768 97.7949 231.557 97.1113 231.557C96.61 231.557 96.1901 231.641 95.8516 231.811C95.513 231.98 95.2396 232.23 95.0312 232.562C94.8294 232.895 94.6829 233.301 94.5918 233.783C94.5072 234.265 94.4648 234.818 94.4648 235.443V241H92.6875V230.277H94.1328L94.3867 231.723H94.4844C94.6406 231.443 94.8262 231.202 95.041 231C95.2559 230.792 95.4902 230.619 95.7441 230.482C96.0046 230.346 96.278 230.245 96.5645 230.18C96.8574 230.115 97.1536 230.082 97.4531 230.082C98.2344 230.082 98.8822 230.225 99.3965 230.512C99.9173 230.798 100.301 231.247 100.549 231.859H100.627C100.796 231.553 100.998 231.29 101.232 231.068C101.473 230.847 101.734 230.665 102.014 230.521C102.3 230.372 102.6 230.261 102.912 230.189C103.225 230.118 103.544 230.082 103.869 230.082C105.008 230.082 105.865 230.395 106.438 231.02C107.017 231.638 107.307 232.631 107.307 233.998V241H105.529Z" fill="#080808"/>
<path d="M33.075 255.725H40L28.4 283H19.8L8.25 255.725H15.725L24.4 276.975L33.075 255.725ZM44.0516 283V255.725H51.1016V283H44.0516ZM47.5766 251.075C46.1099 251.075 45.0016 250.775 44.2516 250.175C43.5182 249.558 43.1516 248.667 43.1516 247.5C43.1516 246.333 43.5182 245.442 44.2516 244.825C45.0016 244.208 46.1099 243.9 47.5766 243.9C49.0432 243.9 50.1432 244.208 50.8766 244.825C51.6266 245.442 52.0016 246.333 52.0016 247.5C52.0016 248.667 51.6266 249.558 50.8766 250.175C50.1432 250.775 49.0432 251.075 47.5766 251.075ZM73.4988 277.825C74.4322 277.825 75.5905 277.692 76.9738 277.425V282.9C75.1905 283.3 73.3988 283.5 71.5988 283.5C68.0822 283.5 65.4072 282.658 63.5738 280.975C61.7572 279.292 60.8488 276.75 60.8488 273.35V261.325H55.6488V255.725H60.8488L62.0988 246H67.8988V255.725H76.6988V261.325H67.8988V272.025C67.8988 274.125 68.3488 275.617 69.2488 276.5C70.1488 277.383 71.5655 277.825 73.4988 277.825ZM91.9969 255.3C95.1135 255.3 97.6302 255.658 99.5469 256.375C101.48 257.092 102.914 258.283 103.847 259.95C104.797 261.617 105.272 263.892 105.272 266.775V283H99.3969L98.9219 280.25H98.5719C97.5719 281.283 96.3219 282.083 94.8219 282.65C93.3219 283.2 91.7135 283.475 89.9969 283.475C87.9135 283.475 86.1385 283.15 84.6719 282.5C83.2219 281.85 82.1219 280.942 81.3719 279.775C80.6219 278.608 80.2469 277.25 80.2469 275.7C80.2469 273.2 81.2052 271.267 83.1219 269.9C85.0385 268.517 88.0719 267.675 92.2219 267.375L98.3719 266.8V266.25C98.3719 264.767 98.1135 263.617 97.5969 262.8C97.0802 261.967 96.2802 261.375 95.1969 261.025C94.1302 260.675 92.6885 260.5 90.8719 260.5C89.6052 260.5 88.2219 260.608 86.7219 260.825C85.2385 261.025 83.8302 261.333 82.4969 261.75V256.625C83.8969 256.192 85.4385 255.867 87.1219 255.65C88.8219 255.417 90.4469 255.3 91.9969 255.3ZM92.0719 278.75C93.2219 278.75 94.3385 278.558 95.4219 278.175C96.5052 277.792 97.4885 277.217 98.3719 276.45V270.775L92.7969 271.275C90.8135 271.475 89.3969 271.892 88.5469 272.525C87.6969 273.142 87.2719 274.017 87.2719 275.15C87.2719 276.283 87.6719 277.167 88.4719 277.8C89.2719 278.433 90.4719 278.75 92.0719 278.75ZM137.581 271.35H118.131C118.231 273.033 118.623 274.392 119.306 275.425C120.006 276.442 121.073 277.192 122.506 277.675C123.94 278.142 125.84 278.375 128.206 278.375C130.523 278.375 133.106 278.05 135.956 277.4V282.475C133.056 283.158 130.131 283.5 127.181 283.5C121.765 283.5 117.731 282.358 115.081 280.075C112.448 277.775 111.131 274.225 111.131 269.425C111.131 266.458 111.656 263.917 112.706 261.8C113.773 259.683 115.323 258.075 117.356 256.975C119.406 255.858 121.865 255.3 124.731 255.3C128.898 255.3 132.081 256.542 134.281 259.025C136.481 261.508 137.581 265.042 137.581 269.625V271.35ZM124.606 259.725C122.523 259.725 120.931 260.35 119.831 261.6C118.748 262.833 118.173 264.75 118.106 267.35H131.031C130.965 264.75 130.398 262.833 129.331 261.6C128.265 260.35 126.69 259.725 124.606 259.725Z" fill="#080808"/>
<path d="M184.225 279.475V283H159.825V280.725L171.85 267.05C173.967 264.633 175.45 262.6 176.3 260.95C177.15 259.3 177.575 257.675 177.575 256.075C177.575 253.675 176.858 251.908 175.425 250.775C173.992 249.625 171.783 249.05 168.8 249.05C165.4 249.05 162.258 249.575 159.375 250.625V247.025C160.675 246.575 162.167 246.217 163.85 245.95C165.55 245.667 167.275 245.525 169.025 245.525C173.275 245.525 176.467 246.367 178.6 248.05C180.75 249.717 181.825 252.258 181.825 255.675C181.825 257.108 181.617 258.475 181.2 259.775C180.783 261.075 180.1 262.442 179.15 263.875C178.2 265.308 176.892 266.958 175.225 268.825L165.775 279.475H184.225ZM215.9 270.75V274.2H210.15V283H206.2V274.2H185.325V271.875L201.55 246H205.875L190.35 270.75H206.2L206.7 258.5H210.15V270.75H215.9Z" fill="#080808"/>
</svg>
